<svg width="1200" height="840" viewBox="0 0 1200 840" fill="none" xmlns="http://www.w3.org/2000/svg">
  <rect width="1200" height="840" fill="#F0EAD8"/>
  <rect x="220" y="60" width="760" height="620" rx="34" fill="#F4F4F2"/>
  <rect x="310" y="110" width="100" height="100" rx="18" fill="#0E1418"/>
  <rect x="430" y="110" width="100" height="100" rx="18" fill="#D7A55B"/>
  <rect x="560" y="110" width="100" height="100" rx="18" fill="#0E1418"/>
  <rect x="390" y="250" width="420" height="64" rx="18" fill="#FFFDF7" stroke="#E8E2D9"/>
  <rect x="390" y="340" width="420" height="64" rx="18" fill="#FFFDF7" stroke="#E8E2D9"/>
  <rect x="390" y="460" width="420" height="80" rx="18" fill="#F2C94C"/>
  <text x="600" y="220" text-anchor="middle" font-family="Verdana, Arial, sans-serif" font-size="62" font-weight="700" fill="#111111">Treasureville</text>
  <text x="600" y="292" text-anchor="middle" font-family="Verdana, Arial, sans-serif" font-size="28" fill="#8A8A8A">Sign in with your teacher account</text>
  <text x="430" y="286" font-family="Verdana, Arial, sans-serif" font-size="30" fill="#4B4B4B">Username</text>
  <text x="430" y="376" font-family="Verdana, Arial, sans-serif" font-size="30" fill="#4B4B4B">Password</text>
  <text x="600" y="515" text-anchor="middle" font-family="Verdana, Arial, sans-serif" font-size="34" font-weight="700" fill="#111111">Sign in</text>
  <text x="600" y="610" text-anchor="middle" font-family="Verdana, Arial, sans-serif" font-size="24" fill="#6E6E6E">Ask the team lead if you need an account created.</text>
  <circle cx="790" cy="150" r="12" fill="#FFFFFF"/>
  <circle cx="755" cy="150" r="12" fill="#D7A55B"/>
  <circle cx="720" cy="150" r="12" fill="#0E1418"/>
</svg>
